<?xml version="1.0" encoding="utf-8"?>
<!-- Generator: Adobe Illustrator 25.1.0, SVG Export Plug-In . SVG Version: 6.00 Build 0)  -->
<svg version="1.1" id="Layer_1" xmlns="http://www.w3.org/2000/svg" xmlns:xlink="http://www.w3.org/1999/xlink" x="0px" y="0px"
	 viewBox="0 0 24 24" style="enable-background:new 0 0 24 24;" xml:space="preserve">
<style type="text/css">
	.st0{fill:#FFFFFF;}
</style>
<path class="st0" d="M1,8.9C1,8.9,1,8.9,1,8.9c0.3-0.4,0.6-0.5,1-0.2c0.8,0.6,1.6,1.2,2.3,1.8c1,0.8,2.1,1.6,3.1,2.4
	C7.5,13,7.5,13,7.6,13.1c0.1-0.2,0.2-0.4,0.3-0.6c1.2-2.6,2.3-5.3,3.5-7.9c0.1-0.2,0.2-0.4,0.4-0.4c0.3-0.1,0.5,0.1,0.7,0.4
	c0.4,1,0.9,2,1.3,3c0.8,1.8,1.6,3.5,2.3,5.3c0,0.1,0.1,0.1,0.1,0.2c0.1,0,0.1-0.1,0.2-0.1c1.8-1.4,3.6-2.8,5.4-4.1
	c0.1-0.1,0.2-0.1,0.3-0.2c0.2-0.1,0.4-0.1,0.6,0.1C22.9,8.8,23,9,22.9,9.2c-0.1,0.2-0.1,0.4-0.2,0.6c-1.2,3.2-2.5,6.4-3.7,9.6
	c-0.1,0.3-0.3,0.5-0.6,0.5c-4.3,0-8.6,0-13,0c-0.3-0.1-0.4-0.3-0.6-0.5C4,16.9,3.1,14.5,2.1,12C1.7,11.1,1.4,10.1,1,9.2
	C1,9.1,1,9,1,8.9z"/>
</svg>
