<?xml version="1.0" encoding="UTF-8"?> <!-- Generator: Adobe Illustrator 19.2.1, SVG Export Plug-In . SVG Version: 6.00 Build 0) --> <svg xmlns="http://www.w3.org/2000/svg" xmlns:xlink="http://www.w3.org/1999/xlink" version="1.1" id="Слой_1" x="0px" y="0px" width="81.3px" height="81px" viewBox="0 0 81.3 81" style="enable-background:new 0 0 81.3 81;" xml:space="preserve"> <style type="text/css"> .st0{fill:#010101;} .st1{fill:#FFFFFF;} </style> <g> <rect class="st0" width="81.2" height="27.1"></rect> <rect x="0.1" y="27" class="st0" width="81.2" height="27.1"></rect> <rect y="54" class="st0" width="81.2" height="27.1"></rect> </g> <g> <path class="st1" d="M15.5,11.5v1.7h7.7v2.8h-7.7v4.2h-4.2V8.6h12.2v2.9H15.5z"></path> </g> <g> <path class="st1" d="M43.2,18.1h-5.5l-0.9,2.2h-4.5l5.4-11.7h5.5l5.4,11.7h-4.5L43.2,18.1z M42.1,15.5l-0.8-2 c-0.5-1.1-0.7-1.8-0.9-2.5h0c-0.1,0.8-0.4,1.4-0.9,2.5l-0.8,2H42.1z"></path> </g> <g> <path class="st1" d="M71.3,16.9c0,1.6-1.2,3.4-4.5,3.4h-9.5V8.6h9.4c2.9,0,4.3,1.2,4.3,2.9c0,1.2-0.8,2.2-2.4,2.6 C70.4,14.3,71.3,15.3,71.3,16.9z M61.5,11.2v2h3.9c1,0,1.2-0.5,1.2-1c0-0.5-0.3-0.9-1.2-0.9H61.5z M66.9,16.6 c0-0.6-0.5-1.1-1.3-1.1h-4.1v2.2h4.1C66.5,17.7,66.9,17.1,66.9,16.6z"></path> </g> <g> <path class="st1" d="M11.7,34.1h4.2v8.5h7.4v3.2H11.7V34.1z"></path> </g> <g> <path class="st1" d="M43.2,43.6h-5.5l-0.9,2.2h-4.5l5.4-11.7h5.5l5.4,11.7h-4.5L43.2,43.6z M42.2,41l-0.8-2 c-0.5-1.1-0.7-1.8-0.9-2.5h0c-0.1,0.8-0.4,1.4-0.9,2.5l-0.8,2H42.2z"></path> </g> <g> <path class="st1" d="M71.4,42.4c0,1.6-1.2,3.4-4.5,3.4h-9.5V34.1h9.4c2.9,0,4.3,1.2,4.3,2.9c0,1.2-0.8,2.2-2.4,2.6 C70.5,39.8,71.4,40.8,71.4,42.4z M61.5,36.7v2h3.9c1,0,1.2-0.5,1.2-1c0-0.5-0.3-0.9-1.2-0.9H61.5z M67,42c0-0.6-0.5-1.1-1.3-1.1 h-4.1v2.2h4.1C66.6,43.2,67,42.6,67,42z"></path> </g> <g> <path class="st1" d="M24.4,69.8c0,1.6-1.2,3.4-4.5,3.4h-9.5V61.6h9.4c2.9,0,4.3,1.2,4.3,2.9c0,1.2-0.8,2.2-2.4,2.6 C23.4,67.3,24.4,68.3,24.4,69.8z M14.5,64.2v2h3.9c1,0,1.2-0.5,1.2-1c0-0.5-0.3-0.9-1.2-0.9H14.5z M20,69.5c0-0.6-0.5-1.1-1.3-1.1 h-4.1v2.2h4.1C19.6,70.6,20,70.1,20,69.5z"></path> </g> <g> <path class="st1" d="M32.7,67.5c0-3.7,3.3-6.3,7.9-6.3c3.8,0,6.7,1.7,7.5,4.4l-4.4,0.8c-0.3-1.4-1.4-2.1-3.2-2.1 c-2.1,0-3.4,1.2-3.4,3.1c0,1.9,1.3,3.1,3.4,3.1c1.7,0,2.9-0.7,3.2-2.1l4.3,1c-0.9,2.7-3.8,4.3-7.6,4.3 C35.7,73.6,32.7,71.2,32.7,67.5z"></path> </g> <g> <path class="st1" d="M56.8,61.6h4.4L66,67c0.4,0.5,0.7,0.9,1,1.4H67v-1.8v-5.1h3.8v11.7h-4.1l-5-5.4c-0.3-0.3-0.8-1.1-1-1.5h-0.1 v1.8v5.1h-3.8V61.6z"></path> </g> </svg> 